<svg xmlns="http://www.w3.org/2000/svg" viewBox="4388.609 1943.255 43.053 26.796">
  <defs>
    <style>
      .cls-1 {
        fill: #fff;
      }
    </style>
  </defs>
  <g id="Group_5" data-name="Group 5" transform="translate(4388.609 1943.255)">
    <path id="Path_13" data-name="Path 13" class="cls-1" d="M17.609,18.553c3.472,1.736,4.911,4.365,4.415,7.936a6.908,6.908,0,0,1-6.052,6.151c-5.258.5-10.615.446-15.972.645V6.5H13.343a12.314,12.314,0,0,1,2.679.3c2.53.5,4.315,1.935,4.712,4.563.5,2.778.1,5.307-2.679,6.8A4.579,4.579,0,0,1,17.609,18.553ZM5.9,21.282v7.044c2.629,0,5.159.149,7.688-.05,1.984-.149,2.778-1.438,2.728-3.472-.05-1.984-1.091-3.423-2.976-3.522C10.913,21.182,8.482,21.282,5.9,21.282Zm-.248-4.315a69.057,69.057,0,0,0,7.192-.05c1.786-.2,2.331-1.339,2.282-3.274a2.384,2.384,0,0,0-2.431-2.48c-2.282-.149-4.613-.05-6.994-.05-.05.6-.05,1.042-.1,1.538C5.655,14.089,5.655,15.478,5.655,16.966Z" transform="translate(0 -6.5)"/>
    <path id="Path_14" data-name="Path 14" class="cls-1" d="M66.93,33.789c-1.141,4.762-5.754,7.192-11.21,6.1-5.407-1.091-8.532-5.7-7.589-11.26.942-5.754,5.506-9.176,11.161-8.432,4.96.645,8.383,5.456,7.887,11.21H53.934c-.347,1.984.248,3.423,1.686,4.266,1.835,1.042,4.464,1.091,5.8-.446C62.962,33.193,64.9,33.888,66.93,33.789Zm-5.059-5.7c-.446-2.927-1.835-4.117-4.514-3.919a3.723,3.723,0,0,0-3.819,3.919Z" transform="translate(-24.173 -13.352)"/>
    <path id="Path_15" data-name="Path 15" class="cls-1" d="M67.565,10.2v2.381H57V10.2Z" transform="translate(-28.727 -8.365)"/>
  </g>
</svg>
