<svg xmlns="http://www.w3.org/2000/svg" viewBox="4508.003 1940 33.377 33.464">
  <defs>
    <style>
      .cls-1 {
        fill: #fff;
      }
    </style>
  </defs>
  <g id="Group_6" data-name="Group 6" transform="translate(4508.003 1940)">
    <path id="Path_16" data-name="Path 16" class="cls-1" d="M273.934,16.684a76.838,76.838,0,0,1-.05,8.284c-.546,4.811-3.224,7.788-8.036,8.135a118.905,118.905,0,0,1-16.815,0c-4.811-.347-7.738-3.274-8.036-8.085A117.51,117.51,0,0,1,241,8.3c.347-4.861,3.323-7.788,8.184-8.085a123.106,123.106,0,0,1,16.567,0c5.109.4,8.085,3.968,8.284,9.127.1,2.431,0,4.861,0,7.292A.154.154,0,0,1,273.934,16.684Zm-3.026.149h.1c0-2.381.1-4.811,0-7.192-.149-3.869-1.984-6.2-5.7-6.4a153.06,153.06,0,0,0-15.823,0c-3.373.149-5.307,2.083-5.506,5.456a142.969,142.969,0,0,0,0,15.972c.2,3.423,2.133,5.307,5.605,5.506,5.208.248,10.516.248,15.724,0,3.472-.2,5.208-2.083,5.605-5.555C271.106,22.041,270.908,19.412,270.908,16.833Z" transform="translate(-240.7 0.063)"/>
    <path id="Path_17" data-name="Path 17" class="cls-1" d="M257,24.828a8.608,8.608,0,1,1,8.432,8.78A8.721,8.721,0,0,1,257,24.828Zm14.186.149a5.556,5.556,0,1,0-5.555,5.555A5.589,5.589,0,0,0,271.182,24.977Z" transform="translate(-248.91 -8.23)"/>
    <path id="Path_18" data-name="Path 18" class="cls-1" d="M288.4,13.782a1.984,1.984,0,0,1,3.968-.05,2,2,0,0,1-1.984,2.034A2.022,2.022,0,0,1,288.4,13.782Z" transform="translate(-264.74 -5.914)"/>
  </g>
</svg>
