<svg xmlns="http://www.w3.org/2000/svg" viewBox="4390 166.009 61.284 36.03">
  <defs>
    <style>
      .cls-1 {
        fill: #ffce00;
      }
    </style>
  </defs>
  <path id="Union_2" data-name="Union 2" class="cls-1" d="M-4231.1,30.869a14.151,14.151,0,0,1-7.327-6.588c1.724-1.185,3.448-2.371,5.2-3.587.2.339.353.662.538.954a8.843,8.843,0,0,0,6.527,4.187,9.837,9.837,0,0,0,5.681-.662,9.939,9.939,0,0,0,4.971-4.987,13.739,13.739,0,0,0,1.293-7.589,12.2,12.2,0,0,0-3.448-7.574,9.256,9.256,0,0,0-6.419-2.971,9.838,9.838,0,0,0-7.1,2.37,8.054,8.054,0,0,0-2,2.6c-.062.107-.124.231-.2.384-1.879-1.077-3.695-2.123-5.619-3.232.385-.663.723-1.339,1.155-1.94a14.154,14.154,0,0,1,6-4.649,18.4,18.4,0,0,1,8.805-1.539,15.18,15.18,0,0,1,8.081,3.064,18.4,18.4,0,0,1,7.451,11.884,17.593,17.593,0,0,1-4.249,15.363,15.924,15.924,0,0,1-8.928,5.234,19.925,19.925,0,0,1-4.094.437A17.675,17.675,0,0,1-4231.1,30.869Zm24.354.554q6.42-7.436,12.854-14.87c.431-.509.431-.509.046-1.032q-6.835-9.375-13.7-18.749c-.108-.139-.216-.293-.37-.509h1.325c1.954,0,3.925.016,5.881,0a.785.785,0,0,1,.724.369q5.24,7.3,10.483,14.579c.107.138.215.291.323.431.369-.354.738-.693,1.077-1.047,1.094-1.139,2.171-2.279,3.28-3.418a.871.871,0,0,0,.277-.677c-.015-3.249,0-6.5,0-9.729v-.478c.154-.015.262-.031.369-.031,2.017,0,4.034.016,6.035-.015.354,0,.431.107.431.431-.015,3.032,0,6.08,0,9.113V31.114c0,.6,0,.6-.616.6h-5.649c-.708,0-.57,0-.57-.585V14.813c-.184.2-.292.307-.4.431q-6.442,7.3-12.87,14.593c-.507.57-1.016,1.155-1.539,1.724a.562.562,0,0,1-.385.2c-2.4.016-4.8.016-7.281.016C-4206.9,31.623-4206.826,31.515-4206.75,31.423Z" transform="translate(8629 170.009)"/>
</svg>
