<svg xmlns="http://www.w3.org/2000/svg" viewBox="4454.729 1941.121 28.944 28.92">
  <defs>
    <style>
      .cls-1 {
        fill: #fff;
      }
    </style>
  </defs>
  <g id="Group_4" data-name="Group 4" transform="translate(4454.73 1941.121)">
    <path id="Path_10" data-name="Path 10" class="cls-1" d="M166.649,40.434V36.565c0-2.48.05-4.96-.05-7.44-.1-2.133-1.141-3.175-2.976-3.274a3.033,3.033,0,0,0-3.423,2.976c-.2,1.885-.149,3.77-.2,5.7s0,3.869,0,5.9h-5.9v-19.2h5.655c.05.744.05,1.488.1,2.48a6.976,6.976,0,0,1,6.25-3.026c3.919.149,6.3,2.133,6.5,6.052.248,4.514.05,9.077.05,13.69Z" transform="translate(-143.783 -11.515)"/>
    <path id="Path_11" data-name="Path 11" class="cls-1" d="M134.5,21.7h5.8V40.946h-5.8Z" transform="translate(-133.905 -12.026)"/>
    <path id="Path_12" data-name="Path 12" class="cls-1" d="M136.723,9.143A3.6,3.6,0,0,1,133.3,5.572,3.517,3.517,0,0,1,136.871,2.2a3.567,3.567,0,0,1,3.373,3.472A3.592,3.592,0,0,1,136.723,9.143Z" transform="translate(-133.3 -2.198)"/>
  </g>
</svg>
